<mxfile host="app.diagrams.net" modified="2022-07-27T02:24:39.652Z" agent="5.0 (Windows NT 10.0; Win64; x64) AppleWebKit/537.36 (KHTML, like Gecko) Chrome/97.0.4692.99 Safari/537.36" etag="5W0JSIdNmMs_jaSTK0WW" version="20.2.0" type="github">
  <diagram id="R2lEEEUBdFMjLlhIrx00" name="Page-1">
    <mxGraphModel dx="1615" dy="965" grid="1" gridSize="10" guides="1" tooltips="1" connect="1" arrows="1" fold="1" page="1" pageScale="1" pageWidth="850" pageHeight="1100" math="0" shadow="0" extFonts="Permanent Marker^https://fonts.googleapis.com/css?family=Permanent+Marker">
      <root>
        <mxCell id="0" />
        <mxCell id="1" parent="0" />
        <mxCell id="_jhM0TmbpqfNp14iLgsG-1" value="角色" style="rounded=0;whiteSpace=wrap;html=1;" vertex="1" parent="1">
          <mxGeometry x="535" y="530" width="120" height="60" as="geometry" />
        </mxCell>
        <mxCell id="_jhM0TmbpqfNp14iLgsG-2" value="系统" style="rounded=0;whiteSpace=wrap;html=1;" vertex="1" parent="1">
          <mxGeometry x="885" y="525" width="120" height="60" as="geometry" />
        </mxCell>
        <mxCell id="_jhM0TmbpqfNp14iLgsG-3" value="活动" style="rounded=0;whiteSpace=wrap;html=1;" vertex="1" parent="1">
          <mxGeometry x="185" y="530" width="120" height="60" as="geometry" />
        </mxCell>
        <mxCell id="_jhM0TmbpqfNp14iLgsG-4" value="礼包" style="rounded=0;whiteSpace=wrap;html=1;" vertex="1" parent="1">
          <mxGeometry x="195" y="777.5" width="120" height="60" as="geometry" />
        </mxCell>
        <mxCell id="_jhM0TmbpqfNp14iLgsG-5" value="页面信息" style="rounded=0;whiteSpace=wrap;html=1;" vertex="1" parent="1">
          <mxGeometry x="1245" y="467.5" width="120" height="60" as="geometry" />
        </mxCell>
        <mxCell id="_jhM0TmbpqfNp14iLgsG-6" value="接口调用" style="rounded=0;whiteSpace=wrap;html=1;" vertex="1" parent="1">
          <mxGeometry x="1245" y="592.5" width="120" height="60" as="geometry" />
        </mxCell>
        <mxCell id="_jhM0TmbpqfNp14iLgsG-7" value="工单" style="rounded=0;whiteSpace=wrap;html=1;" vertex="1" parent="1">
          <mxGeometry x="535" y="740" width="120" height="60" as="geometry" />
        </mxCell>
        <mxCell id="_jhM0TmbpqfNp14iLgsG-8" value="id" style="ellipse;whiteSpace=wrap;html=1;" vertex="1" parent="1">
          <mxGeometry x="450" y="460" width="70" height="40" as="geometry" />
        </mxCell>
        <mxCell id="_jhM0TmbpqfNp14iLgsG-10" value="姓名" style="ellipse;whiteSpace=wrap;html=1;" vertex="1" parent="1">
          <mxGeometry x="520" y="440" width="70" height="40" as="geometry" />
        </mxCell>
        <mxCell id="_jhM0TmbpqfNp14iLgsG-11" value="部门" style="ellipse;whiteSpace=wrap;html=1;" vertex="1" parent="1">
          <mxGeometry x="600" y="440" width="70" height="40" as="geometry" />
        </mxCell>
        <mxCell id="_jhM0TmbpqfNp14iLgsG-12" value="权限级别" style="ellipse;whiteSpace=wrap;html=1;" vertex="1" parent="1">
          <mxGeometry x="670" y="460" width="70" height="40" as="geometry" />
        </mxCell>
        <mxCell id="_jhM0TmbpqfNp14iLgsG-13" value="" style="endArrow=none;html=1;rounded=0;" edge="1" parent="1" source="_jhM0TmbpqfNp14iLgsG-8" target="_jhM0TmbpqfNp14iLgsG-1">
          <mxGeometry width="50" height="50" relative="1" as="geometry">
            <mxPoint x="545" y="760" as="sourcePoint" />
            <mxPoint x="595" y="710" as="targetPoint" />
          </mxGeometry>
        </mxCell>
        <mxCell id="_jhM0TmbpqfNp14iLgsG-14" value="" style="endArrow=none;html=1;rounded=0;" edge="1" parent="1" source="_jhM0TmbpqfNp14iLgsG-10" target="_jhM0TmbpqfNp14iLgsG-1">
          <mxGeometry width="50" height="50" relative="1" as="geometry">
            <mxPoint x="545" y="760" as="sourcePoint" />
            <mxPoint x="595" y="710" as="targetPoint" />
          </mxGeometry>
        </mxCell>
        <mxCell id="_jhM0TmbpqfNp14iLgsG-15" value="" style="endArrow=none;html=1;rounded=0;" edge="1" parent="1" source="_jhM0TmbpqfNp14iLgsG-11" target="_jhM0TmbpqfNp14iLgsG-1">
          <mxGeometry width="50" height="50" relative="1" as="geometry">
            <mxPoint x="545" y="760" as="sourcePoint" />
            <mxPoint x="595" y="710" as="targetPoint" />
          </mxGeometry>
        </mxCell>
        <mxCell id="_jhM0TmbpqfNp14iLgsG-16" value="" style="endArrow=none;html=1;rounded=0;" edge="1" parent="1" source="_jhM0TmbpqfNp14iLgsG-12" target="_jhM0TmbpqfNp14iLgsG-1">
          <mxGeometry width="50" height="50" relative="1" as="geometry">
            <mxPoint x="545" y="760" as="sourcePoint" />
            <mxPoint x="595" y="710" as="targetPoint" />
          </mxGeometry>
        </mxCell>
        <mxCell id="_jhM0TmbpqfNp14iLgsG-18" value="查看" style="rhombus;whiteSpace=wrap;html=1;" vertex="1" parent="1">
          <mxGeometry x="360" y="535" width="100" height="50" as="geometry" />
        </mxCell>
        <mxCell id="_jhM0TmbpqfNp14iLgsG-19" value="" style="endArrow=none;html=1;rounded=0;" edge="1" parent="1" source="_jhM0TmbpqfNp14iLgsG-18" target="_jhM0TmbpqfNp14iLgsG-1">
          <mxGeometry width="50" height="50" relative="1" as="geometry">
            <mxPoint x="545" y="760" as="sourcePoint" />
            <mxPoint x="595" y="710" as="targetPoint" />
          </mxGeometry>
        </mxCell>
        <mxCell id="_jhM0TmbpqfNp14iLgsG-20" value="" style="endArrow=none;html=1;rounded=0;" edge="1" parent="1" source="_jhM0TmbpqfNp14iLgsG-18" target="_jhM0TmbpqfNp14iLgsG-3">
          <mxGeometry width="50" height="50" relative="1" as="geometry">
            <mxPoint x="545" y="760" as="sourcePoint" />
            <mxPoint x="595" y="710" as="targetPoint" />
          </mxGeometry>
        </mxCell>
        <mxCell id="_jhM0TmbpqfNp14iLgsG-21" value="生成" style="rhombus;whiteSpace=wrap;html=1;" vertex="1" parent="1">
          <mxGeometry x="195" y="652.5" width="100" height="50" as="geometry" />
        </mxCell>
        <mxCell id="_jhM0TmbpqfNp14iLgsG-22" value="" style="endArrow=none;html=1;rounded=0;" edge="1" parent="1" source="_jhM0TmbpqfNp14iLgsG-21" target="_jhM0TmbpqfNp14iLgsG-3">
          <mxGeometry width="50" height="50" relative="1" as="geometry">
            <mxPoint x="545" y="760" as="sourcePoint" />
            <mxPoint x="595" y="710" as="targetPoint" />
          </mxGeometry>
        </mxCell>
        <mxCell id="_jhM0TmbpqfNp14iLgsG-23" value="" style="endArrow=none;html=1;rounded=0;" edge="1" parent="1" source="_jhM0TmbpqfNp14iLgsG-21" target="_jhM0TmbpqfNp14iLgsG-4">
          <mxGeometry width="50" height="50" relative="1" as="geometry">
            <mxPoint x="365" y="870" as="sourcePoint" />
            <mxPoint x="945" y="1020" as="targetPoint" />
          </mxGeometry>
        </mxCell>
        <mxCell id="_jhM0TmbpqfNp14iLgsG-24" value="n" style="text;html=1;strokeColor=none;fillColor=none;align=center;verticalAlign=middle;whiteSpace=wrap;rounded=0;" vertex="1" parent="1">
          <mxGeometry x="240" y="710" width="60" height="30" as="geometry" />
        </mxCell>
        <mxCell id="_jhM0TmbpqfNp14iLgsG-27" value="1" style="text;html=1;strokeColor=none;fillColor=none;align=center;verticalAlign=middle;whiteSpace=wrap;rounded=0;" vertex="1" parent="1">
          <mxGeometry x="235" y="607.5" width="60" height="30" as="geometry" />
        </mxCell>
        <mxCell id="_jhM0TmbpqfNp14iLgsG-28" value="n" style="text;html=1;strokeColor=none;fillColor=none;align=center;verticalAlign=middle;whiteSpace=wrap;rounded=0;" vertex="1" parent="1">
          <mxGeometry x="305" y="529" width="60" height="30" as="geometry" />
        </mxCell>
        <mxCell id="_jhM0TmbpqfNp14iLgsG-29" value="1" style="text;html=1;strokeColor=none;fillColor=none;align=center;verticalAlign=middle;whiteSpace=wrap;rounded=0;" vertex="1" parent="1">
          <mxGeometry x="460" y="535" width="60" height="30" as="geometry" />
        </mxCell>
        <mxCell id="_jhM0TmbpqfNp14iLgsG-31" value="" style="endArrow=none;html=1;rounded=0;" edge="1" parent="1" source="_jhM0TmbpqfNp14iLgsG-32" target="_jhM0TmbpqfNp14iLgsG-1">
          <mxGeometry width="50" height="50" relative="1" as="geometry">
            <mxPoint x="545" y="760" as="sourcePoint" />
            <mxPoint x="595" y="710" as="targetPoint" />
          </mxGeometry>
        </mxCell>
        <mxCell id="_jhM0TmbpqfNp14iLgsG-32" value="操作" style="rhombus;whiteSpace=wrap;html=1;" vertex="1" parent="1">
          <mxGeometry x="545" y="640" width="100" height="50" as="geometry" />
        </mxCell>
        <mxCell id="_jhM0TmbpqfNp14iLgsG-33" value="" style="endArrow=none;html=1;rounded=0;" edge="1" parent="1" source="_jhM0TmbpqfNp14iLgsG-32" target="_jhM0TmbpqfNp14iLgsG-7">
          <mxGeometry width="50" height="50" relative="1" as="geometry">
            <mxPoint x="545" y="760" as="sourcePoint" />
            <mxPoint x="595" y="710" as="targetPoint" />
          </mxGeometry>
        </mxCell>
        <mxCell id="_jhM0TmbpqfNp14iLgsG-34" value="查看" style="rhombus;whiteSpace=wrap;html=1;" vertex="1" parent="1">
          <mxGeometry x="725" y="535" width="100" height="50" as="geometry" />
        </mxCell>
        <mxCell id="_jhM0TmbpqfNp14iLgsG-35" value="" style="endArrow=none;html=1;rounded=0;" edge="1" parent="1" source="_jhM0TmbpqfNp14iLgsG-34" target="_jhM0TmbpqfNp14iLgsG-1">
          <mxGeometry width="50" height="50" relative="1" as="geometry">
            <mxPoint x="545" y="760" as="sourcePoint" />
            <mxPoint x="595" y="710" as="targetPoint" />
          </mxGeometry>
        </mxCell>
        <mxCell id="_jhM0TmbpqfNp14iLgsG-36" value="" style="endArrow=none;html=1;rounded=0;" edge="1" parent="1" source="_jhM0TmbpqfNp14iLgsG-34" target="_jhM0TmbpqfNp14iLgsG-2">
          <mxGeometry width="50" height="50" relative="1" as="geometry">
            <mxPoint x="545" y="760" as="sourcePoint" />
            <mxPoint x="595" y="710" as="targetPoint" />
          </mxGeometry>
        </mxCell>
        <mxCell id="_jhM0TmbpqfNp14iLgsG-37" value="" style="endArrow=none;html=1;rounded=0;exitX=0;exitY=0.5;exitDx=0;exitDy=0;entryX=1;entryY=0.5;entryDx=0;entryDy=0;" edge="1" parent="1" source="_jhM0TmbpqfNp14iLgsG-39" target="_jhM0TmbpqfNp14iLgsG-2">
          <mxGeometry width="50" height="50" relative="1" as="geometry">
            <mxPoint x="545" y="760" as="sourcePoint" />
            <mxPoint x="595" y="710" as="targetPoint" />
          </mxGeometry>
        </mxCell>
        <mxCell id="_jhM0TmbpqfNp14iLgsG-39" value="查看" style="rhombus;whiteSpace=wrap;html=1;" vertex="1" parent="1">
          <mxGeometry x="1095" y="475" width="100" height="50" as="geometry" />
        </mxCell>
        <mxCell id="_jhM0TmbpqfNp14iLgsG-40" value="" style="endArrow=none;html=1;rounded=0;exitX=1;exitY=0.5;exitDx=0;exitDy=0;" edge="1" parent="1" source="_jhM0TmbpqfNp14iLgsG-39" target="_jhM0TmbpqfNp14iLgsG-5">
          <mxGeometry width="50" height="50" relative="1" as="geometry">
            <mxPoint x="545" y="775" as="sourcePoint" />
            <mxPoint x="595" y="725" as="targetPoint" />
          </mxGeometry>
        </mxCell>
        <mxCell id="_jhM0TmbpqfNp14iLgsG-41" value="查看" style="rhombus;whiteSpace=wrap;html=1;" vertex="1" parent="1">
          <mxGeometry x="1095" y="600" width="100" height="50" as="geometry" />
        </mxCell>
        <mxCell id="_jhM0TmbpqfNp14iLgsG-42" value="" style="endArrow=none;html=1;rounded=0;exitX=0;exitY=0.5;exitDx=0;exitDy=0;entryX=1;entryY=0.5;entryDx=0;entryDy=0;" edge="1" parent="1" source="_jhM0TmbpqfNp14iLgsG-41" target="_jhM0TmbpqfNp14iLgsG-2">
          <mxGeometry width="50" height="50" relative="1" as="geometry">
            <mxPoint x="545" y="760" as="sourcePoint" />
            <mxPoint x="595" y="710" as="targetPoint" />
          </mxGeometry>
        </mxCell>
        <mxCell id="_jhM0TmbpqfNp14iLgsG-43" value="" style="endArrow=none;html=1;rounded=0;exitX=1;exitY=0.5;exitDx=0;exitDy=0;startArrow=none;" edge="1" parent="1" source="_jhM0TmbpqfNp14iLgsG-110" target="_jhM0TmbpqfNp14iLgsG-6">
          <mxGeometry width="50" height="50" relative="1" as="geometry">
            <mxPoint x="545" y="775" as="sourcePoint" />
            <mxPoint x="595" y="725" as="targetPoint" />
          </mxGeometry>
        </mxCell>
        <mxCell id="_jhM0TmbpqfNp14iLgsG-44" value="id" style="ellipse;whiteSpace=wrap;html=1;" vertex="1" parent="1">
          <mxGeometry x="435" y="780" width="70" height="40" as="geometry" />
        </mxCell>
        <mxCell id="_jhM0TmbpqfNp14iLgsG-45" value="标题" style="ellipse;whiteSpace=wrap;html=1;" vertex="1" parent="1">
          <mxGeometry x="475" y="830" width="70" height="40" as="geometry" />
        </mxCell>
        <mxCell id="_jhM0TmbpqfNp14iLgsG-46" value="内容" style="ellipse;whiteSpace=wrap;html=1;" vertex="1" parent="1">
          <mxGeometry x="560" y="830" width="70" height="40" as="geometry" />
        </mxCell>
        <mxCell id="_jhM0TmbpqfNp14iLgsG-47" value="&lt;p class=&quot;MsoNormal&quot;&gt;&lt;span style=&quot;mso-spacerun:&#39;yes&#39;;font-family:宋体;font-size:10.5000pt;&lt;br/&gt;mso-font-kerning:1.0000pt;&quot;&gt;工单处理状态&lt;/span&gt;&lt;/p&gt;" style="ellipse;whiteSpace=wrap;html=1;" vertex="1" parent="1">
          <mxGeometry x="645" y="830" width="70" height="40" as="geometry" />
        </mxCell>
        <mxCell id="_jhM0TmbpqfNp14iLgsG-48" value="&lt;p class=&quot;MsoNormal&quot;&gt;&lt;span style=&quot;mso-spacerun:&#39;yes&#39;;font-family:宋体;font-size:10.5000pt;&lt;br/&gt;mso-font-kerning:1.0000pt;&quot;&gt;工单告警接收人&lt;/span&gt;&lt;/p&gt;" style="ellipse;whiteSpace=wrap;html=1;" vertex="1" parent="1">
          <mxGeometry x="695" y="770" width="70" height="40" as="geometry" />
        </mxCell>
        <mxCell id="_jhM0TmbpqfNp14iLgsG-51" value="" style="endArrow=none;html=1;rounded=0;" edge="1" parent="1" source="_jhM0TmbpqfNp14iLgsG-44" target="_jhM0TmbpqfNp14iLgsG-7">
          <mxGeometry width="50" height="50" relative="1" as="geometry">
            <mxPoint x="545" y="760" as="sourcePoint" />
            <mxPoint x="595" y="710" as="targetPoint" />
          </mxGeometry>
        </mxCell>
        <mxCell id="_jhM0TmbpqfNp14iLgsG-52" value="" style="endArrow=none;html=1;rounded=0;" edge="1" parent="1" source="_jhM0TmbpqfNp14iLgsG-45" target="_jhM0TmbpqfNp14iLgsG-7">
          <mxGeometry width="50" height="50" relative="1" as="geometry">
            <mxPoint x="545" y="760" as="sourcePoint" />
            <mxPoint x="595" y="710" as="targetPoint" />
          </mxGeometry>
        </mxCell>
        <mxCell id="_jhM0TmbpqfNp14iLgsG-53" value="" style="endArrow=none;html=1;rounded=0;" edge="1" parent="1" source="_jhM0TmbpqfNp14iLgsG-46" target="_jhM0TmbpqfNp14iLgsG-7">
          <mxGeometry width="50" height="50" relative="1" as="geometry">
            <mxPoint x="545" y="760" as="sourcePoint" />
            <mxPoint x="595" y="710" as="targetPoint" />
          </mxGeometry>
        </mxCell>
        <mxCell id="_jhM0TmbpqfNp14iLgsG-54" value="" style="endArrow=none;html=1;rounded=0;" edge="1" parent="1" source="_jhM0TmbpqfNp14iLgsG-47" target="_jhM0TmbpqfNp14iLgsG-7">
          <mxGeometry width="50" height="50" relative="1" as="geometry">
            <mxPoint x="545" y="760" as="sourcePoint" />
            <mxPoint x="595" y="710" as="targetPoint" />
          </mxGeometry>
        </mxCell>
        <mxCell id="_jhM0TmbpqfNp14iLgsG-55" value="" style="endArrow=none;html=1;rounded=0;" edge="1" parent="1" source="_jhM0TmbpqfNp14iLgsG-48" target="_jhM0TmbpqfNp14iLgsG-7">
          <mxGeometry width="50" height="50" relative="1" as="geometry">
            <mxPoint x="545" y="760" as="sourcePoint" />
            <mxPoint x="595" y="710" as="targetPoint" />
          </mxGeometry>
        </mxCell>
        <mxCell id="_jhM0TmbpqfNp14iLgsG-56" value="id" style="ellipse;whiteSpace=wrap;html=1;" vertex="1" parent="1">
          <mxGeometry x="125" y="467.5" width="70" height="40" as="geometry" />
        </mxCell>
        <mxCell id="_jhM0TmbpqfNp14iLgsG-57" value="&lt;p class=&quot;MsoNormal&quot;&gt;&lt;span style=&quot;mso-spacerun:&#39;yes&#39;;font-family:宋体;font-size:10.5000pt;&lt;br/&gt;mso-font-kerning:1.0000pt;&quot;&gt;活动详细描述&lt;/span&gt;&lt;/p&gt;" style="ellipse;whiteSpace=wrap;html=1;" vertex="1" parent="1">
          <mxGeometry x="215" y="467.5" width="70" height="40" as="geometry" />
        </mxCell>
        <mxCell id="_jhM0TmbpqfNp14iLgsG-58" value="&lt;p class=&quot;MsoNormal&quot;&gt;所属业务&lt;/p&gt;" style="ellipse;whiteSpace=wrap;html=1;" vertex="1" parent="1">
          <mxGeometry x="305" y="467.5" width="70" height="40" as="geometry" />
        </mxCell>
        <mxCell id="_jhM0TmbpqfNp14iLgsG-60" value="&lt;p class=&quot;MsoNormal&quot;&gt;&lt;span style=&quot;mso-spacerun:&#39;yes&#39;;font-family:宋体;font-size:10.5000pt;&lt;br/&gt;mso-font-kerning:1.0000pt;&quot;&gt;相关人员&lt;/span&gt;&lt;/p&gt;" style="ellipse;whiteSpace=wrap;html=1;" vertex="1" parent="1">
          <mxGeometry x="45" y="560" width="70" height="40" as="geometry" />
        </mxCell>
        <mxCell id="_jhM0TmbpqfNp14iLgsG-61" value="&lt;p class=&quot;MsoNormal&quot;&gt;&lt;span style=&quot;mso-spacerun:&#39;yes&#39;;font-family:宋体;font-size:10.5000pt;&lt;br/&gt;mso-font-kerning:1.0000pt;&quot;&gt;流控阈值&lt;/span&gt;&lt;/p&gt;" style="ellipse;whiteSpace=wrap;html=1;" vertex="1" parent="1">
          <mxGeometry x="125" y="612.5" width="70" height="40" as="geometry" />
        </mxCell>
        <mxCell id="_jhM0TmbpqfNp14iLgsG-62" value="&lt;p class=&quot;MsoNormal&quot;&gt;&lt;span style=&quot;mso-spacerun:&#39;yes&#39;;font-family:宋体;font-size:10.5000pt;&lt;br/&gt;mso-font-kerning:1.0000pt;&quot;&gt;活动礼包信息&lt;/span&gt;&lt;/p&gt;" style="ellipse;whiteSpace=wrap;html=1;" vertex="1" parent="1">
          <mxGeometry x="330" y="612.5" width="70" height="40" as="geometry" />
        </mxCell>
        <mxCell id="_jhM0TmbpqfNp14iLgsG-63" value="" style="endArrow=none;html=1;rounded=0;" edge="1" parent="1" source="_jhM0TmbpqfNp14iLgsG-56" target="_jhM0TmbpqfNp14iLgsG-3">
          <mxGeometry width="50" height="50" relative="1" as="geometry">
            <mxPoint x="545" y="760" as="sourcePoint" />
            <mxPoint x="595" y="710" as="targetPoint" />
          </mxGeometry>
        </mxCell>
        <mxCell id="_jhM0TmbpqfNp14iLgsG-64" value="" style="endArrow=none;html=1;rounded=0;" edge="1" parent="1" source="_jhM0TmbpqfNp14iLgsG-57" target="_jhM0TmbpqfNp14iLgsG-3">
          <mxGeometry width="50" height="50" relative="1" as="geometry">
            <mxPoint x="545" y="760" as="sourcePoint" />
            <mxPoint x="595" y="710" as="targetPoint" />
          </mxGeometry>
        </mxCell>
        <mxCell id="_jhM0TmbpqfNp14iLgsG-65" value="" style="endArrow=none;html=1;rounded=0;" edge="1" parent="1" source="_jhM0TmbpqfNp14iLgsG-58" target="_jhM0TmbpqfNp14iLgsG-3">
          <mxGeometry width="50" height="50" relative="1" as="geometry">
            <mxPoint x="545" y="760" as="sourcePoint" />
            <mxPoint x="595" y="710" as="targetPoint" />
          </mxGeometry>
        </mxCell>
        <mxCell id="_jhM0TmbpqfNp14iLgsG-66" value="" style="endArrow=none;html=1;rounded=0;" edge="1" parent="1" source="_jhM0TmbpqfNp14iLgsG-60" target="_jhM0TmbpqfNp14iLgsG-3">
          <mxGeometry width="50" height="50" relative="1" as="geometry">
            <mxPoint x="545" y="760" as="sourcePoint" />
            <mxPoint x="595" y="710" as="targetPoint" />
          </mxGeometry>
        </mxCell>
        <mxCell id="_jhM0TmbpqfNp14iLgsG-67" value="" style="endArrow=none;html=1;rounded=0;" edge="1" parent="1" source="_jhM0TmbpqfNp14iLgsG-61" target="_jhM0TmbpqfNp14iLgsG-3">
          <mxGeometry width="50" height="50" relative="1" as="geometry">
            <mxPoint x="545" y="760" as="sourcePoint" />
            <mxPoint x="595" y="710" as="targetPoint" />
          </mxGeometry>
        </mxCell>
        <mxCell id="_jhM0TmbpqfNp14iLgsG-68" value="" style="endArrow=none;html=1;rounded=0;" edge="1" parent="1" source="_jhM0TmbpqfNp14iLgsG-62" target="_jhM0TmbpqfNp14iLgsG-3">
          <mxGeometry width="50" height="50" relative="1" as="geometry">
            <mxPoint x="545" y="760" as="sourcePoint" />
            <mxPoint x="595" y="710" as="targetPoint" />
          </mxGeometry>
        </mxCell>
        <mxCell id="_jhM0TmbpqfNp14iLgsG-69" value="id" style="ellipse;whiteSpace=wrap;html=1;" vertex="1" parent="1">
          <mxGeometry x="90" y="797.5" width="70" height="40" as="geometry" />
        </mxCell>
        <mxCell id="_jhM0TmbpqfNp14iLgsG-70" value="&lt;p class=&quot;MsoNormal&quot;&gt;&lt;span style=&quot;mso-spacerun:&#39;yes&#39;;font-family:宋体;font-size:10.5000pt;&lt;br/&gt;mso-font-kerning:1.0000pt;&quot;&gt;&lt;font face=&quot;宋体&quot;&gt;活动&lt;/font&gt;ID&lt;/span&gt;&lt;/p&gt;" style="ellipse;whiteSpace=wrap;html=1;" vertex="1" parent="1">
          <mxGeometry x="115" y="707.5" width="70" height="40" as="geometry" />
        </mxCell>
        <mxCell id="_jhM0TmbpqfNp14iLgsG-71" value="&lt;p class=&quot;MsoNormal&quot;&gt;&lt;span style=&quot;mso-spacerun:&#39;yes&#39;;font-family:宋体;font-size:10.5000pt;&lt;br/&gt;mso-font-kerning:1.0000pt;&quot;&gt;&lt;font face=&quot;宋体&quot;&gt;礼包组&lt;/font&gt;ID&lt;/span&gt;&lt;/p&gt;" style="ellipse;whiteSpace=wrap;html=1;" vertex="1" parent="1">
          <mxGeometry x="310" y="717.5" width="70" height="40" as="geometry" />
        </mxCell>
        <mxCell id="_jhM0TmbpqfNp14iLgsG-72" value="&lt;p class=&quot;MsoNormal&quot;&gt;&lt;span style=&quot;mso-spacerun:&#39;yes&#39;;font-family:宋体;font-size:10.5000pt;&lt;br/&gt;mso-font-kerning:1.0000pt;&quot;&gt;已领取比例&lt;/span&gt;&lt;/p&gt;" style="ellipse;whiteSpace=wrap;html=1;" vertex="1" parent="1">
          <mxGeometry x="170" y="867.5" width="70" height="40" as="geometry" />
        </mxCell>
        <mxCell id="_jhM0TmbpqfNp14iLgsG-73" value="&lt;p class=&quot;MsoNormal&quot;&gt;&lt;span style=&quot;mso-spacerun:&#39;yes&#39;;font-family:宋体;font-size:10.5000pt;&lt;br/&gt;mso-font-kerning:1.0000pt;&quot;&gt;限量类型&lt;/span&gt;&lt;/p&gt;" style="ellipse;whiteSpace=wrap;html=1;" vertex="1" parent="1">
          <mxGeometry x="260" y="867.5" width="70" height="40" as="geometry" />
        </mxCell>
        <mxCell id="_jhM0TmbpqfNp14iLgsG-74" value="&lt;p class=&quot;MsoNormal&quot;&gt;&lt;span style=&quot;mso-spacerun:&#39;yes&#39;;font-family:宋体;font-size:10.5000pt;&lt;br/&gt;mso-font-kerning:1.0000pt;&quot;&gt;礼包价值&lt;/span&gt;&lt;/p&gt;" style="ellipse;whiteSpace=wrap;html=1;" vertex="1" parent="1">
          <mxGeometry x="330" y="820" width="70" height="40" as="geometry" />
        </mxCell>
        <mxCell id="_jhM0TmbpqfNp14iLgsG-75" value="" style="endArrow=none;html=1;rounded=0;" edge="1" parent="1" source="_jhM0TmbpqfNp14iLgsG-71" target="_jhM0TmbpqfNp14iLgsG-4">
          <mxGeometry width="50" height="50" relative="1" as="geometry">
            <mxPoint x="325" y="747.5" as="sourcePoint" />
            <mxPoint x="945" y="957.5" as="targetPoint" />
          </mxGeometry>
        </mxCell>
        <mxCell id="_jhM0TmbpqfNp14iLgsG-76" value="" style="endArrow=none;html=1;rounded=0;" edge="1" parent="1" source="_jhM0TmbpqfNp14iLgsG-70" target="_jhM0TmbpqfNp14iLgsG-4">
          <mxGeometry width="50" height="50" relative="1" as="geometry">
            <mxPoint x="325" y="747.5" as="sourcePoint" />
            <mxPoint x="945" y="957.5" as="targetPoint" />
          </mxGeometry>
        </mxCell>
        <mxCell id="_jhM0TmbpqfNp14iLgsG-77" value="" style="endArrow=none;html=1;rounded=0;exitX=1;exitY=1;exitDx=0;exitDy=0;" edge="1" parent="1" source="_jhM0TmbpqfNp14iLgsG-69" target="_jhM0TmbpqfNp14iLgsG-4">
          <mxGeometry width="50" height="50" relative="1" as="geometry">
            <mxPoint x="325" y="747.5" as="sourcePoint" />
            <mxPoint x="945" y="957.5" as="targetPoint" />
          </mxGeometry>
        </mxCell>
        <mxCell id="_jhM0TmbpqfNp14iLgsG-78" value="" style="endArrow=none;html=1;rounded=0;" edge="1" parent="1" source="_jhM0TmbpqfNp14iLgsG-4" target="_jhM0TmbpqfNp14iLgsG-72">
          <mxGeometry width="50" height="50" relative="1" as="geometry">
            <mxPoint x="325" y="747.5" as="sourcePoint" />
            <mxPoint x="945" y="957.5" as="targetPoint" />
          </mxGeometry>
        </mxCell>
        <mxCell id="_jhM0TmbpqfNp14iLgsG-79" value="" style="endArrow=none;html=1;rounded=0;" edge="1" parent="1" source="_jhM0TmbpqfNp14iLgsG-4" target="_jhM0TmbpqfNp14iLgsG-73">
          <mxGeometry width="50" height="50" relative="1" as="geometry">
            <mxPoint x="325" y="747.5" as="sourcePoint" />
            <mxPoint x="945" y="957.5" as="targetPoint" />
          </mxGeometry>
        </mxCell>
        <mxCell id="_jhM0TmbpqfNp14iLgsG-80" value="" style="endArrow=none;html=1;rounded=0;" edge="1" parent="1" source="_jhM0TmbpqfNp14iLgsG-4" target="_jhM0TmbpqfNp14iLgsG-74">
          <mxGeometry width="50" height="50" relative="1" as="geometry">
            <mxPoint x="325" y="747.5" as="sourcePoint" />
            <mxPoint x="945" y="957.5" as="targetPoint" />
          </mxGeometry>
        </mxCell>
        <mxCell id="_jhM0TmbpqfNp14iLgsG-81" value="id" style="ellipse;whiteSpace=wrap;html=1;" vertex="1" parent="1">
          <mxGeometry x="855" y="460" width="70" height="40" as="geometry" />
        </mxCell>
        <mxCell id="_jhM0TmbpqfNp14iLgsG-82" value="&lt;p class=&quot;MsoNormal&quot;&gt;&lt;span style=&quot;mso-spacerun:&#39;yes&#39;;font-family:宋体;font-size:10.5000pt;&lt;br/&gt;mso-font-kerning:1.0000pt;&quot;&gt;系统名称&lt;/span&gt;&lt;/p&gt;" style="ellipse;whiteSpace=wrap;html=1;" vertex="1" parent="1">
          <mxGeometry x="965" y="460" width="70" height="40" as="geometry" />
        </mxCell>
        <mxCell id="_jhM0TmbpqfNp14iLgsG-83" value="&lt;p class=&quot;MsoNormal&quot;&gt;&lt;span style=&quot;mso-spacerun:&#39;yes&#39;;font-family:宋体;font-size:10.5000pt;&lt;br/&gt;mso-font-kerning:1.0000pt;&quot;&gt;地址&lt;/span&gt;&lt;/p&gt;" style="ellipse;whiteSpace=wrap;html=1;" vertex="1" parent="1">
          <mxGeometry x="855" y="610" width="70" height="40" as="geometry" />
        </mxCell>
        <mxCell id="_jhM0TmbpqfNp14iLgsG-84" value="&lt;p class=&quot;MsoNormal&quot;&gt;&lt;span style=&quot;mso-spacerun:&#39;yes&#39;;font-family:宋体;font-size:10.5000pt;&lt;br/&gt;mso-font-kerning:1.0000pt;&quot;&gt;负责人&lt;/span&gt;&lt;/p&gt;" style="ellipse;whiteSpace=wrap;html=1;" vertex="1" parent="1">
          <mxGeometry x="965" y="610" width="70" height="40" as="geometry" />
        </mxCell>
        <mxCell id="_jhM0TmbpqfNp14iLgsG-85" value="" style="endArrow=none;html=1;rounded=0;" edge="1" parent="1" source="_jhM0TmbpqfNp14iLgsG-81" target="_jhM0TmbpqfNp14iLgsG-2">
          <mxGeometry width="50" height="50" relative="1" as="geometry">
            <mxPoint x="545" y="760" as="sourcePoint" />
            <mxPoint x="595" y="710" as="targetPoint" />
          </mxGeometry>
        </mxCell>
        <mxCell id="_jhM0TmbpqfNp14iLgsG-86" value="" style="endArrow=none;html=1;rounded=0;" edge="1" parent="1" source="_jhM0TmbpqfNp14iLgsG-82" target="_jhM0TmbpqfNp14iLgsG-2">
          <mxGeometry width="50" height="50" relative="1" as="geometry">
            <mxPoint x="545" y="760" as="sourcePoint" />
            <mxPoint x="595" y="710" as="targetPoint" />
          </mxGeometry>
        </mxCell>
        <mxCell id="_jhM0TmbpqfNp14iLgsG-87" value="" style="endArrow=none;html=1;rounded=0;" edge="1" parent="1" source="_jhM0TmbpqfNp14iLgsG-83" target="_jhM0TmbpqfNp14iLgsG-2">
          <mxGeometry width="50" height="50" relative="1" as="geometry">
            <mxPoint x="545" y="760" as="sourcePoint" />
            <mxPoint x="595" y="710" as="targetPoint" />
          </mxGeometry>
        </mxCell>
        <mxCell id="_jhM0TmbpqfNp14iLgsG-88" value="" style="endArrow=none;html=1;rounded=0;" edge="1" parent="1" source="_jhM0TmbpqfNp14iLgsG-84" target="_jhM0TmbpqfNp14iLgsG-2">
          <mxGeometry width="50" height="50" relative="1" as="geometry">
            <mxPoint x="545" y="760" as="sourcePoint" />
            <mxPoint x="595" y="710" as="targetPoint" />
          </mxGeometry>
        </mxCell>
        <mxCell id="_jhM0TmbpqfNp14iLgsG-89" value="&lt;p class=&quot;MsoNormal&quot;&gt;&lt;span style=&quot;mso-spacerun:&#39;yes&#39;;font-family:宋体;font-size:10.5000pt;&lt;br/&gt;mso-font-kerning:1.0000pt;&quot;&gt;requestId&lt;/span&gt;&lt;/p&gt;" style="ellipse;whiteSpace=wrap;html=1;" vertex="1" parent="1">
          <mxGeometry x="1180" y="410" width="70" height="40" as="geometry" />
        </mxCell>
        <mxCell id="_jhM0TmbpqfNp14iLgsG-90" value="&lt;p class=&quot;MsoNormal&quot;&gt;&lt;span style=&quot;mso-spacerun:&#39;yes&#39;;font-family:宋体;font-size:10.5000pt;&lt;br/&gt;mso-font-kerning:1.0000pt;&quot;&gt;时间&lt;/span&gt;&lt;/p&gt;" style="ellipse;whiteSpace=wrap;html=1;" vertex="1" parent="1">
          <mxGeometry x="1270" y="410" width="70" height="40" as="geometry" />
        </mxCell>
        <mxCell id="_jhM0TmbpqfNp14iLgsG-91" value="&lt;p class=&quot;MsoNormal&quot;&gt;&lt;span style=&quot;mso-spacerun:&#39;yes&#39;;font-family:宋体;font-size:10.5000pt;&lt;br/&gt;mso-font-kerning:1.0000pt;&quot;&gt;用户角色&lt;/span&gt;&lt;/p&gt;" style="ellipse;whiteSpace=wrap;html=1;" vertex="1" parent="1">
          <mxGeometry x="1360" y="410" width="70" height="40" as="geometry" />
        </mxCell>
        <mxCell id="_jhM0TmbpqfNp14iLgsG-92" value="&lt;p class=&quot;MsoNormal&quot;&gt;&lt;span style=&quot;mso-spacerun:&#39;yes&#39;;font-family:宋体;font-size:10.5000pt;&lt;br/&gt;mso-font-kerning:1.0000pt;&quot;&gt;异常级别&lt;/span&gt;&lt;/p&gt;" style="ellipse;whiteSpace=wrap;html=1;" vertex="1" parent="1">
          <mxGeometry x="1380" y="475" width="70" height="40" as="geometry" />
        </mxCell>
        <mxCell id="_jhM0TmbpqfNp14iLgsG-93" value="" style="endArrow=none;html=1;rounded=0;" edge="1" parent="1" source="_jhM0TmbpqfNp14iLgsG-89" target="_jhM0TmbpqfNp14iLgsG-5">
          <mxGeometry width="50" height="50" relative="1" as="geometry">
            <mxPoint x="545" y="775" as="sourcePoint" />
            <mxPoint x="595" y="725" as="targetPoint" />
          </mxGeometry>
        </mxCell>
        <mxCell id="_jhM0TmbpqfNp14iLgsG-94" value="" style="endArrow=none;html=1;rounded=0;" edge="1" parent="1" source="_jhM0TmbpqfNp14iLgsG-90" target="_jhM0TmbpqfNp14iLgsG-5">
          <mxGeometry width="50" height="50" relative="1" as="geometry">
            <mxPoint x="545" y="775" as="sourcePoint" />
            <mxPoint x="595" y="725" as="targetPoint" />
          </mxGeometry>
        </mxCell>
        <mxCell id="_jhM0TmbpqfNp14iLgsG-95" value="" style="endArrow=none;html=1;rounded=0;" edge="1" parent="1" source="_jhM0TmbpqfNp14iLgsG-91" target="_jhM0TmbpqfNp14iLgsG-5">
          <mxGeometry width="50" height="50" relative="1" as="geometry">
            <mxPoint x="545" y="775" as="sourcePoint" />
            <mxPoint x="595" y="725" as="targetPoint" />
          </mxGeometry>
        </mxCell>
        <mxCell id="_jhM0TmbpqfNp14iLgsG-96" value="" style="endArrow=none;html=1;rounded=0;" edge="1" parent="1" source="_jhM0TmbpqfNp14iLgsG-92" target="_jhM0TmbpqfNp14iLgsG-5">
          <mxGeometry width="50" height="50" relative="1" as="geometry">
            <mxPoint x="545" y="775" as="sourcePoint" />
            <mxPoint x="595" y="725" as="targetPoint" />
          </mxGeometry>
        </mxCell>
        <mxCell id="_jhM0TmbpqfNp14iLgsG-97" value="&lt;p class=&quot;MsoNormal&quot;&gt;&lt;span&gt;id&lt;/span&gt;&lt;/p&gt;" style="ellipse;whiteSpace=wrap;html=1;" vertex="1" parent="1">
          <mxGeometry x="1180" y="670" width="70" height="40" as="geometry" />
        </mxCell>
        <mxCell id="_jhM0TmbpqfNp14iLgsG-98" value="&lt;p class=&quot;MsoNormal&quot;&gt;&lt;span style=&quot;mso-spacerun:&#39;yes&#39;;font-family:宋体;font-size:10.5000pt;&lt;br/&gt;mso-font-kerning:1.0000pt;&quot;&gt;接口&lt;/span&gt;&lt;/p&gt;" style="ellipse;whiteSpace=wrap;html=1;" vertex="1" parent="1">
          <mxGeometry x="1270" y="670" width="70" height="40" as="geometry" />
        </mxCell>
        <mxCell id="_jhM0TmbpqfNp14iLgsG-99" value="&lt;p class=&quot;MsoNormal&quot;&gt;&lt;span style=&quot;mso-spacerun:&#39;yes&#39;;font-family:宋体;font-size:10.5000pt;&lt;br/&gt;mso-font-kerning:1.0000pt;&quot;&gt;上报时间&lt;/span&gt;&lt;/p&gt;" style="ellipse;whiteSpace=wrap;html=1;" vertex="1" parent="1">
          <mxGeometry x="1360" y="670" width="70" height="40" as="geometry" />
        </mxCell>
        <mxCell id="_jhM0TmbpqfNp14iLgsG-100" value="&lt;p class=&quot;MsoNormal&quot;&gt;&lt;span style=&quot;mso-spacerun:&#39;yes&#39;;font-family:宋体;font-size:10.5000pt;&lt;br/&gt;mso-font-kerning:1.0000pt;&quot;&gt;请求超时数&lt;/span&gt;&lt;/p&gt;" style="ellipse;whiteSpace=wrap;html=1;" vertex="1" parent="1">
          <mxGeometry x="1400" y="610" width="70" height="40" as="geometry" />
        </mxCell>
        <mxCell id="_jhM0TmbpqfNp14iLgsG-101" value="" style="endArrow=none;html=1;rounded=0;" edge="1" parent="1" source="_jhM0TmbpqfNp14iLgsG-97" target="_jhM0TmbpqfNp14iLgsG-6">
          <mxGeometry width="50" height="50" relative="1" as="geometry">
            <mxPoint x="545" y="775" as="sourcePoint" />
            <mxPoint x="595" y="725" as="targetPoint" />
          </mxGeometry>
        </mxCell>
        <mxCell id="_jhM0TmbpqfNp14iLgsG-102" value="" style="endArrow=none;html=1;rounded=0;" edge="1" parent="1" source="_jhM0TmbpqfNp14iLgsG-98" target="_jhM0TmbpqfNp14iLgsG-6">
          <mxGeometry width="50" height="50" relative="1" as="geometry">
            <mxPoint x="545" y="775" as="sourcePoint" />
            <mxPoint x="595" y="725" as="targetPoint" />
          </mxGeometry>
        </mxCell>
        <mxCell id="_jhM0TmbpqfNp14iLgsG-103" value="" style="endArrow=none;html=1;rounded=0;exitX=0;exitY=0;exitDx=0;exitDy=0;" edge="1" parent="1" source="_jhM0TmbpqfNp14iLgsG-99" target="_jhM0TmbpqfNp14iLgsG-6">
          <mxGeometry width="50" height="50" relative="1" as="geometry">
            <mxPoint x="545" y="775" as="sourcePoint" />
            <mxPoint x="595" y="725" as="targetPoint" />
          </mxGeometry>
        </mxCell>
        <mxCell id="_jhM0TmbpqfNp14iLgsG-104" value="" style="endArrow=none;html=1;rounded=0;" edge="1" parent="1" source="_jhM0TmbpqfNp14iLgsG-100" target="_jhM0TmbpqfNp14iLgsG-6">
          <mxGeometry width="50" height="50" relative="1" as="geometry">
            <mxPoint x="545" y="775" as="sourcePoint" />
            <mxPoint x="595" y="725" as="targetPoint" />
          </mxGeometry>
        </mxCell>
        <mxCell id="_jhM0TmbpqfNp14iLgsG-105" value="n" style="text;html=1;strokeColor=none;fillColor=none;align=center;verticalAlign=middle;whiteSpace=wrap;rounded=0;" vertex="1" parent="1">
          <mxGeometry x="585" y="700" width="60" height="30" as="geometry" />
        </mxCell>
        <mxCell id="_jhM0TmbpqfNp14iLgsG-106" value="1" style="text;html=1;strokeColor=none;fillColor=none;align=center;verticalAlign=middle;whiteSpace=wrap;rounded=0;" vertex="1" parent="1">
          <mxGeometry x="585" y="600" width="60" height="30" as="geometry" />
        </mxCell>
        <mxCell id="_jhM0TmbpqfNp14iLgsG-107" value="1" style="text;html=1;strokeColor=none;fillColor=none;align=center;verticalAlign=middle;whiteSpace=wrap;rounded=0;" vertex="1" parent="1">
          <mxGeometry x="670" y="525" width="60" height="30" as="geometry" />
        </mxCell>
        <mxCell id="_jhM0TmbpqfNp14iLgsG-109" value="n" style="text;html=1;strokeColor=none;fillColor=none;align=center;verticalAlign=middle;whiteSpace=wrap;rounded=0;" vertex="1" parent="1">
          <mxGeometry x="820" y="527.5" width="60" height="30" as="geometry" />
        </mxCell>
        <mxCell id="_jhM0TmbpqfNp14iLgsG-110" value="n" style="text;html=1;strokeColor=none;fillColor=none;align=center;verticalAlign=middle;whiteSpace=wrap;rounded=0;" vertex="1" parent="1">
          <mxGeometry x="1185" y="600" width="60" height="30" as="geometry" />
        </mxCell>
        <mxCell id="_jhM0TmbpqfNp14iLgsG-111" value="" style="endArrow=none;html=1;rounded=0;exitX=1;exitY=0.5;exitDx=0;exitDy=0;" edge="1" parent="1" source="_jhM0TmbpqfNp14iLgsG-41" target="_jhM0TmbpqfNp14iLgsG-110">
          <mxGeometry width="50" height="50" relative="1" as="geometry">
            <mxPoint x="1195" y="625" as="sourcePoint" />
            <mxPoint x="1245" y="623.8636363636365" as="targetPoint" />
          </mxGeometry>
        </mxCell>
        <mxCell id="_jhM0TmbpqfNp14iLgsG-112" value="1" style="text;html=1;strokeColor=none;fillColor=none;align=center;verticalAlign=middle;whiteSpace=wrap;rounded=0;" vertex="1" parent="1">
          <mxGeometry x="1020" y="500" width="60" height="30" as="geometry" />
        </mxCell>
        <mxCell id="_jhM0TmbpqfNp14iLgsG-113" value="1" style="text;html=1;strokeColor=none;fillColor=none;align=center;verticalAlign=middle;whiteSpace=wrap;rounded=0;" vertex="1" parent="1">
          <mxGeometry x="1035" y="570" width="60" height="30" as="geometry" />
        </mxCell>
      </root>
    </mxGraphModel>
  </diagram>
</mxfile>
